External Loads File
version=1
nRows=93
nColumns=13
Range=5.000000e-03-10 seconds
endheader
time 	forceRightX 	forceRightY 	forceRightZ 	pointRightX 	pointRightY 	pointRightZ 	forceLeftX 	forceLeftY 	forceLeftZ 	pointLeftX 	pointLeftY 	pointLeftZ 		
2.505000 -160.639640 363.962145 -0.000000 0.421470 0.415405 -0.124614 104.743331 -24.007802 -0.000000 0.171108 0.232441 -0.361278
2.510000 -163.331754 369.723034 -0.000000 0.423605 0.410005 -0.124658 106.383744 -24.423061 -0.000000 0.168252 0.237695 -0.361255
2.515000 -165.977007 376.347317 -0.000000 0.425767 0.404900 -0.124597 108.285282 -24.834435 -0.000000 0.165615 0.243127 -0.361259
2.520000 -167.055949 384.627222 -0.000000 0.427573 0.398507 -0.124618 110.311196 -25.731203 -0.000000 0.163109 0.248666 -0.361200
2.525000 -168.289230 393.842701 -0.000000 0.429369 0.392736 -0.124590 112.514118 -26.635210 -0.000000 0.160763 0.254264 -0.361153
2.530000 -168.726412 404.403162 -0.000000 0.431100 0.386827 -0.124568 114.759131 -27.804239 -0.000000 0.158668 0.260030 -0.361161
2.535000 -168.741540 416.153556 -0.000000 0.432647 0.380952 -0.124502 116.996590 -29.127730 -0.000000 0.156724 0.265812 -0.361078
2.540000 -168.239882 429.139371 -0.000000 0.433962 0.374997 -0.124514 119.129311 -30.662855 -0.000000 0.155010 0.271673 -0.360949
2.545000 -166.666367 443.544144 -0.000000 0.435136 0.368614 -0.124489 121.010236 -32.610100 -0.000000 0.153491 0.277664 -0.360973
2.550000 -165.180133 458.861669 -0.000000 0.436182 0.362451 -0.124447 122.607626 -34.700850 -0.000000 0.152223 0.283680 -0.360971
2.555000 -163.309920 475.185600 -0.000000 0.436979 0.356199 -0.124405 123.757755 -37.116477 -0.000000 0.151134 0.289825 -0.360933
2.560000 -161.371023 492.278918 -0.000000 0.437670 0.349860 -0.124359 124.354636 -39.822377 -0.000000 0.150315 0.295925 -0.360907
2.565000 -159.519493 509.935437 -0.000000 0.438176 0.343572 -0.124385 124.321642 -42.824424 -0.000000 0.149721 0.302063 -0.360905
2.570000 -157.276063 528.122560 -0.000000 0.438582 0.337108 -0.124354 123.592450 -46.283812 -0.000000 0.149393 0.308283 -0.360910
2.575000 -155.188456 546.469054 -0.000000 0.438804 0.330724 -0.124422 122.239601 -50.118204 -0.000000 0.149291 0.314521 -0.360895
2.580000 -153.283606 564.766360 -0.000000 0.438943 0.324448 -0.124515 120.313441 -54.367782 -0.000000 0.149418 0.320771 -0.360891
2.585000 -151.093740 582.934305 -0.000000 0.438977 0.318043 -0.124508 117.817162 -59.135463 -0.000000 0.149827 0.327002 -0.360864
2.590000 -148.770230 600.696516 -0.000000 0.438937 0.311670 -0.124446 114.832555 -64.333314 -0.000000 0.150458 0.333221 -0.360943
2.595000 -146.090756 617.841887 -0.000000 0.438839 0.305379 -0.124230 111.431431 -69.913877 -0.000000 0.151305 0.339506 -0.360930
2.600000 -142.650437 634.193045 -0.000000 0.438409 0.299035 -0.124326 107.649499 -75.840117 -0.000000 0.152390 0.345786 -0.360938
2.605000 -137.202209 649.770219 -0.000000 0.437936 0.292051 -0.124319 103.371392 -82.177288 -0.000000 0.153698 0.352016 -0.360953
2.610000 -132.544753 663.761809 -0.000000 0.437333 0.285861 -0.123943 98.970335 -88.307132 -0.000000 0.155209 0.358292 -0.361018
2.615000 -127.317084 676.286273 -0.000000 0.436341 0.279810 -0.124460 94.324146 -94.270019 -0.000000 0.156898 0.364479 -0.361000
2.620000 -120.937808 687.261095 -0.000000 0.435182 0.273706 -0.124503 89.418594 -99.956309 -0.000000 0.158779 0.370647 -0.361086
2.625000 -112.673006 696.599086 -0.000000 0.433967 0.267400 -0.124707 84.230724 -105.319913 -0.000000 0.160840 0.377010 -0.361166
2.630000 -104.373354 703.788182 -0.000000 0.432370 0.261298 -0.124892 79.122588 -110.075698 -0.000000 0.163129 0.382993 -0.361166
2.635000 -95.613101 708.733087 -0.000000 0.430631 0.255542 -0.125022 74.085453 -114.275411 -0.000000 0.165628 0.389053 -0.361131
2.640000 -85.767499 711.344764 -0.000000 0.428550 0.249723 -0.125082 69.016104 -117.977881 -0.000000 0.168267 0.395053 -0.361037
2.645000 -76.441993 711.245733 -0.000000 0.426688 0.244296 -0.125595 64.151992 -121.009632 -0.000000 0.171114 0.401007 -0.361027
2.650000 -66.037403 708.425260 -0.000000 0.424356 0.238743 -0.125610 59.212756 -123.489587 -0.000000 0.174085 0.406885 -0.360987
2.655000 -56.215048 702.511689 -0.000000 0.422120 0.233374 -0.125802 54.504119 -125.217916 -0.000000 0.177191 0.412573 -0.360968
2.660000 -45.834732 693.409393 -0.000000 0.419734 0.227958 -0.125868 49.848451 -126.206337 -0.000000 0.180524 0.418285 -0.361134
2.665000 -36.120953 680.860850 -0.000000 0.417068 0.222710 -0.125739 45.456879 -126.266395 -0.000000 0.183756 0.423797 -0.360939
2.670000 -25.438240 664.840131 -0.000000 0.413451 0.217689 -0.125089 40.991091 -125.427063 -0.000000 0.187288 0.429273 -0.360968
2.675000 -15.846404 645.207196 -0.000000 0.410678 0.212696 -0.125046 36.787835 -123.520614 -0.000000 0.191582 0.434484 -0.362071
2.680000 -8.318867 622.017709 -0.000000 0.407688 0.207959 -0.125083 32.978725 -120.525485 -0.000000 0.194988 0.439615 -0.361496
2.685000 -1.316285 595.448235 -0.000000 0.404662 0.203401 -0.125104 29.193269 -116.587059 -0.000000 0.198687 0.444642 -0.361353
2.690000 5.453119 565.690023 -0.000000 0.401469 0.198843 -0.125211 25.296425 -111.761890 -0.000000 0.202768 0.449372 -0.361294
2.695000 11.259453 533.004324 -0.000000 0.398373 0.194505 -0.125151 21.372704 -106.013489 -0.000000 0.207002 0.453947 -0.361922
2.700000 16.528807 497.695846 -0.000000 0.395210 0.190162 -0.125107 17.295253 -99.288882 -0.000000 0.211315 0.458328 -0.361737
2.705000 22.186335 460.058980 -0.000000 0.391064 0.186139 -0.124673 12.862178 -91.486459 -0.000000 0.215702 0.462499 -0.361899
2.710000 26.685774 420.521009 -0.000000 0.387523 0.182275 -0.124640 8.413857 -82.432091 -0.000000 0.220179 0.466604 -0.362011
2.715000 31.023167 379.463948 -0.000000 0.383762 0.178469 -0.124715 3.825313 -72.084392 -0.000000 0.224740 0.470395 -0.362197
2.720000 35.170445 337.405044 -0.000000 0.379857 0.174958 -0.124766 -0.821852 -60.424921 -0.000000 0.229560 0.473825 -0.362509
2.725000 38.984254 294.989485 -0.000000 0.375759 0.171775 -0.124788 -5.454749 -47.484343 -0.000000 0.234302 0.477250 -0.362779
2.730000 42.373150 252.941354 -0.000000 0.371621 0.168463 -0.124794 -10.046314 -33.340325 -0.000000 0.239085 0.480380 -0.362935
2.735000 45.155030 212.004996 -0.000000 0.367276 0.165497 -0.124848 -14.573188 -18.115814 -0.000000 0.243914 0.483292 -0.363120
2.740000 47.137326 172.857136 -0.000000 0.362735 0.162741 -0.124942 -18.999904 -1.976528 -0.000000 0.248733 0.485881 -0.363512
2.745000 48.262695 136.016009 -0.000000 0.358114 0.160064 -0.125004 -23.267197 14.889139 -0.000000 0.253718 0.488244 -0.363921
2.750000 48.157847 102.011739 -0.000000 0.353897 0.157674 -0.124548 -27.392508 32.201667 -0.000000 0.258363 0.490395 -0.363893
2.755000 47.580054 70.781927 -0.000000 0.348055 0.155471 -0.125541 -31.142850 49.956887 -0.000000 0.263088 0.492024 -0.364133
2.760000 45.996337 42.773103 -0.000000 0.342976 0.153507 -0.125629 -34.738705 67.814528 -0.000000 0.267800 0.493593 -0.364346
2.765000 43.812810 17.852788 -0.000000 0.337805 0.151899 -0.125798 -38.129116 85.705735 -0.000000 0.272544 0.494950 -0.364591
2.770000 41.203328 -4.147049 -0.000000 0.332511 0.150579 -0.125938 -41.345661 103.540512 -0.000000 0.277293 0.496103 -0.364672
2.775000 38.307335 -23.511399 -0.000000 0.327070 0.149437 -0.126113 -44.420416 121.276581 -0.000000 0.282091 0.496866 -0.364899
2.780000 35.241553 -40.579302 -0.000000 0.321557 0.148648 -0.126232 -47.466510 138.879364 -0.000000 0.286884 0.497383 -0.365121
2.785000 32.097742 -55.713243 -0.000000 0.315932 0.147911 -0.126377 -50.604990 156.344556 -0.000000 0.291605 0.497554 -0.365420
2.790000 28.909693 -69.227019 -0.000000 0.310193 0.147527 -0.126467 -53.916400 173.725590 -0.000000 0.296420 0.497419 -0.365626
2.795000 25.726090 -81.300711 -0.000000 0.304217 0.147249 -0.125968 -57.593465 191.095034 -0.000000 0.301094 0.496957 -0.365962
2.800000 22.593752 -91.989099 -0.000000 0.298304 0.147301 -0.125461 -61.813118 208.554387 -0.000000 0.305827 0.496169 -0.366314
2.805000 19.547291 -101.240785 -0.000000 0.292581 0.147574 -0.126712 -66.685802 226.177278 -0.000000 0.310656 0.495102 -0.366615
2.810000 16.608799 -108.939036 -0.000000 0.286737 0.148171 -0.126679 -72.240349 243.924322 -0.000000 0.315229 0.493710 -0.366953
2.815000 13.748848 -114.952244 -0.000000 0.280846 0.149196 -0.126638 -78.336032 261.602321 -0.000000 0.319807 0.492319 -0.367441
2.820000 11.030271 -119.167069 -0.000000 0.275196 0.150170 -0.126360 -85.006558 278.775573 -0.000000 0.324591 0.490371 -0.367591
2.825000 8.487802 -121.574919 -0.000000 0.269515 0.151510 -0.126020 -92.222976 294.925837 -0.000000 0.329303 0.488123 -0.367848
2.830000 6.070994 -122.318414 -0.000000 0.263778 0.153208 -0.125988 -99.743967 309.601546 -0.000000 0.334146 0.485649 -0.368053
2.835000 3.763973 -121.663441 -0.000000 0.257985 0.155470 -0.126211 -107.361819 322.405347 -0.000000 0.339078 0.482616 -0.368227
2.840000 1.679221 -119.934088 -0.000000 0.252180 0.157990 -0.126428 -115.160920 332.934582 -0.000000 0.344067 0.479657 -0.368330
2.845000 -0.159568 -117.467162 -0.000000 0.246381 0.160631 -0.126597 -122.978008 340.983511 -0.000000 0.349099 0.476455 -0.368470
2.850000 -1.868690 -114.583333 -0.000000 0.240302 0.163428 -0.126510 -130.230718 346.655541 -0.000000 0.354358 0.473108 -0.368328
2.855000 -3.097174 -111.582953 -0.000000 0.234625 0.166498 -0.126883 -137.785378 349.701183 -0.000000 0.359450 0.469497 -0.368395
2.860000 -3.933750 -108.712871 -0.000000 0.229140 0.169799 -0.127153 -145.261403 350.517500 -0.000000 0.364530 0.465724 -0.368441
2.865000 -4.361253 -106.131882 -0.000000 0.223758 0.173375 -0.127139 -152.545350 349.577415 -0.000000 0.369508 0.461718 -0.368498
2.870000 -4.317250 -103.882628 -0.000000 0.218528 0.177170 -0.127031 -159.581131 347.444984 -0.000000 0.374500 0.457563 -0.368436
2.875000 -3.713407 -101.890596 -0.000000 0.213425 0.181356 -0.126830 -166.348434 344.735909 -0.000000 0.379312 0.453196 -0.368474
2.880000 -2.510282 -99.995458 -0.000000 0.208433 0.185754 -0.126528 -172.723358 342.149084 -0.000000 0.384140 0.448625 -0.368320
2.885000 -0.688653 -98.004935 -0.000000 0.203464 0.190552 -0.126333 -178.658326 340.335075 -0.000000 0.388802 0.443791 -0.368283
2.890000 1.820129 -95.746442 -0.000000 0.198700 0.195622 -0.126021 -184.436125 339.684435 -0.000000 0.393326 0.438774 -0.368264
2.895000 5.006247 -93.099462 -0.000000 0.193966 0.200764 -0.125832 -190.222256 340.487232 -0.000000 0.397505 0.433561 -0.368387
2.900000 8.708899 -90.014012 -0.000000 0.189943 0.206493 -0.125155 -195.774894 343.085765 -0.000000 0.401704 0.428053 -0.368388
2.905000 12.807240 -86.491609 -0.000000 0.185507 0.212124 -0.124899 -201.091751 347.542679 -0.000000 0.405601 0.422540 -0.368335
2.910000 17.060762 -82.596994 -0.000000 0.181100 0.217933 -0.124821 -205.747674 354.043655 -0.000000 0.409511 0.416699 -0.368202
2.915000 21.463952 -78.408378 -0.000000 0.176863 0.223913 -0.124823 -210.390792 362.041658 -0.000000 0.412933 0.410802 -0.368232
2.920000 25.737981 -74.104089 -0.000000 0.172859 0.230078 -0.124947 -214.654076 371.490872 -0.000000 0.416350 0.404883 -0.368166
2.925000 29.686678 -69.878777 -0.000000 0.169095 0.236276 -0.125184 -218.477267 382.127855 -0.000000 0.419555 0.398636 -0.368131
2.930000 33.166013 -65.916669 -0.000000 0.165632 0.242701 -0.125406 -221.860072 393.655032 -0.000000 0.422520 0.392287 -0.368063
2.935000 36.073095 -62.378923 -0.000000 0.162684 0.249266 -0.125572 -224.796553 405.799343 -0.000000 0.425299 0.385743 -0.367996
2.940000 38.345341 -59.387745 -0.000000 0.160332 0.255956 -0.125489 -227.378896 418.279334 -0.000000 0.427915 0.379120 -0.367916
2.945000 39.919223 -57.044865 -0.000000 0.158135 0.262638 -0.125514 -229.529476 430.971361 -0.000000 0.430298 0.372421 -0.367921
2.950000 40.755620 -55.423688 -0.000000 0.155998 0.269440 -0.125631 -231.031618 443.882177 -0.000000 0.432455 0.365612 -0.367899
2.955000 40.943118 -54.494551 -0.000000 0.154435 0.276258 -0.125551 -232.426262 456.689297 -0.000000 0.434407 0.358744 -0.367856
2.960000 40.493583 -54.271302 -0.000000 0.153220 0.283153 -0.125554 -233.654735 469.482897 -0.000000 0.436050 0.351817 -0.367841
2.965000 39.420134 -54.752935 -0.000000 0.152302 0.290089 -0.125516 -234.826860 482.361129 -0.000000 0.437539 0.344845 -0.367783
